<?xml version="1.0" standalone="no"?>
<!DOCTYPE svg PUBLIC "-//W3C//DTD SVG 20010904//EN"
 "http://www.w3.org/TR/2001/REC-SVG-20010904/DTD/svg10.dtd">
<svg version="1.0" xmlns="http://www.w3.org/2000/svg"
 width="512.000000pt" height="512.000000pt" viewBox="0 0 512.000000 512.000000"
 preserveAspectRatio="xMidYMid meet">
<metadata>
Created by potrace 1.14, written by Peter Selinger 2001-2017
</metadata>
<g transform="translate(0.000000,512.000000) scale(0.100000,-0.100000)"
fill="#000000" stroke="none">
<path d="M2350 4814 c-412 -50 -728 -160 -1035 -362 -141 -92 -218 -154 -339
-271 -299 -291 -508 -648 -611 -1046 -58 -221 -70 -323 -70 -575 0 -252 12
-354 70 -575 103 -398 312 -755 611 -1046 121 -117 198 -179 339 -271 268
-176 566 -290 900 -345 155 -25 515 -25 670 0 505 83 940 307 1286 663 117
121 179 198 271 339 176 268 290 566 345 900 25 155 25 515 0 670 -83 503
-304 935 -659 1281 -124 122 -200 182 -343 276 -264 173 -546 283 -870 339
-116 20 -470 34 -565 23z m642 -433 c321 -69 578 -207 793 -425 190 -192 287
-345 365 -570 54 -160 70 -257 70 -438 0 -288 -75 -524 -238 -751 -66 -92
-202 -226 -291 -286 -90 -61 -273 -147 -366 -172 -115 -30 -351 -38 -465 -15
-215 44 -384 164 -466 333 -24 49 -29 70 -29 138 0 98 25 147 89 176 51 23
163 25 273 4 184 -35 296 -12 395 83 32 30 58 59 58 64 0 6 -23 35 -51 66
-117 131 -158 224 -188 420 -29 189 -77 299 -173 398 -34 36 -37 42 -21 46 24
6 84 121 112 212 22 70 48 253 38 263 -8 7 -142 -65 -231 -125 -38 -25 -100
-76 -139 -113 l-70 -67 7 141 c4 77 14 179 22 226 8 47 16 93 17 101 3 21 -24
15 -119 -30 -234 -109 -404 -284 -509 -526 -30 -70 -36 -76 -91 -105 -264
-141 -453 -382 -531 -677 -22 -84 -26 -119 -27 -262 -1 -106 4 -186 12 -223
21 -92 8 -77 -27 29 -64 199 -75 277 -76 519 0 240 12 322 75 515 89 273 278
545 508 730 215 174 510 303 777 339 113 16 385 6 497 -18z m-547 -1236 c60
-17 133 -63 161 -102 11 -15 35 -55 54 -88 l34 -60 -34 26 c-19 14 -86 56
-147 93 -62 37 -137 89 -165 116 l-53 48 50 -9 c28 -5 73 -16 100 -24z m-195
-145 c76 -12 170 -42 260 -82 114 -51 229 -137 374 -279 129 -126 139 -138
126 -154 -44 -54 -135 -57 -303 -13 -108 29 -137 33 -252 33 -120 -1 -135 -3
-200 -29 -221 -91 -355 -287 -355 -521 0 -158 74 -334 193 -461 38 -41 83 -82
99 -90 50 -26 24 -27 -49 -1 -161 56 -345 192 -455 337 -67 87 -152 266 -175
365 -25 112 -23 302 6 408 69 258 273 451 513 486 88 12 143 12 218 1z m2268
-230 c24 -96 26 -122 26 -300 0 -218 -12 -312 -65 -477 -86 -268 -265 -537
-482 -724 -104 -89 -290 -214 -400 -268 -292 -142 -639 -198 -976 -156 -310
39 -545 125 -796 293 -378 252 -677 674 -776 1093 -11 49 -19 92 -16 95 2 3
10 -16 16 -42 41 -163 233 -462 424 -661 387 -404 927 -616 1456 -574 403 32
769 196 1047 467 244 238 392 503 470 840 25 106 28 139 28 299 1 99 -2 207
-6 240 l-7 60 15 -40 c8 -22 27 -87 42 -145z"/>
<path d="M3590 3583 c0 -42 -26 -129 -55 -189 -43 -87 -118 -140 -234 -165
l-53 -11 73 -25 c93 -31 128 -53 178 -109 39 -44 69 -108 92 -194 l12 -45 14
64 c17 81 68 176 116 214 20 17 78 45 129 62 84 30 90 34 63 40 -71 16 -132
38 -167 60 -70 46 -132 161 -144 270 -7 57 -24 76 -24 28z"/>
</g>
</svg>
